<?xml version="1.0" standalone="no"?><!DOCTYPE svg PUBLIC "-//W3C//DTD SVG 1.1//EN" "http://www.w3.org/Graphics/SVG/1.1/DTD/svg11.dtd"><svg t="1510276884690" class="icon" style="" viewBox="0 0 1124 1024" version="1.1" xmlns="http://www.w3.org/2000/svg" p-id="1873" xmlns:xlink="http://www.w3.org/1999/xlink" width="70.25" height="64"><defs><style type="text/css"></style></defs><path d="M1066.38 1024H56.716C25.402 1024 0 998.598 0 967.284v-0.1c0-31.347 25.402-56.749 56.716-56.749H1066.38c31.315 0 56.717 25.402 56.717 56.75v0.099c0 31.314-25.402 56.716-56.717 56.716z m-0.066-455.218H56.782C25.402 568.782 0 543.348 0 512c0-31.348 25.402-56.782 56.782-56.782h1009.532c31.348 0 56.783 25.434 56.783 56.782 0 31.348-25.435 56.782-56.783 56.782z m0.066-455.25H56.716C25.402 113.532 0 88.163 0 56.815v-0.099C0 25.402 25.402 0 56.716 0H1066.38c31.315 0 56.717 25.402 56.717 56.716v0.1c0 31.347-25.402 56.716-56.717 56.716z" p-id="1874" fill="#000000"></path></svg>